# xmcd
#
# Track frame offsets:
#  150
#  17861
#  36469
#  58047
#  83684
#  103803
#  124010
#  142716
#  175128
#
# Disc length: 3029 seconds
#
# Revision: 0
# Processed by: cddbd v1.5.2PL0 Copyright (c) Steve Scherf et al.
# Submitted via: Collectorz.com Music Collector 6.9
#
DISCID=720bd309
DTITLE=Various Artist - Mission Worship
DYEAR=2006
DGENRE=Worship
TTITLE0=Lou Fellingham - Nathan Fellingham - Amazing Love
TTITLE1=Stuart Townend - My God
TTITLE2=Andy Bromley - Wonderful Saviour
TTITLE3=Godfrey Birtill - There's A Lot Of Pain (Outrageous Grace)
TTITLE4=Paul Oakley - Astounded By The Mystery (Majesty)
TTITLE5=Andrew Mitchell - Awakening
TTITLE6=Mark Tedder - In Your Name
TTITLE7=Kristyn Getty - Holy Spirit
TTITLE8=Data track
EXTD=
EXTT0=
EXTT1=
EXTT2=
EXTT3=
EXTT4=
EXTT5=
EXTT6=
EXTT7=
EXTT8=
PLAYORDER=
